<svg id="Layer_1" data-name="Layer 1" xmlns="http://www.w3.org/2000/svg" viewBox="0 0 932.2 341.86"><defs><style>.cls-1,.cls-2{fill:#fff;}.cls-2{font-size:216px;font-family:The-Blacklist, The Blacklist;}</style></defs><title>myFoodLogo</title><path class="cls-1" d="M692.24,424.7c-.21,10.39.91,20.32,8.62,28.29a3.49,3.49,0,0,1,.95,2.2c0,7.5.17,15-.31,22.48-.09,1.42-2.57,3.16-4.31,3.92-20.7,9-33.79,24.28-38.23,46.56a64.33,64.33,0,0,0-1.21,12.39c-.1,31.66,0,63.32,0,95a33.11,33.11,0,0,0,.18,4c.93,7.47,5.42,11.11,13,10.61,6.33-.42,10.19-4.71,10.2-11.78q.09-39.26,0-78.49c0-6.85,1.62-10,5.31-9.44,5.63.86,4.8,5.45,4.8,9.41,0,26,0,52,0,78,0,8.39,5.21,13.08,13.33,12.3,6.11-.59,10-5,10.21-12.07.22-7.49.07-15,.07-22.49q0-28,0-56c0-1.34,0-2.67,0-4,.06-3.2,1.74-5.2,4.87-5.12s4.64,2.21,4.63,5.36c0,5,0,10,0,15,0,22-.05,44,0,66,0,7.94,3.66,12.58,10,13.3,8.28.94,13.58-3.86,13.59-12.54q.07-39.24,0-78.48c0-1.17-.43-2.61.1-3.44,1.21-1.92,3.1-5.08,4.33-4.91,2,.27,4.05,2.55,5.49,4.43.73,1,.19,2.91.19,4.41,0,26.16,0,52.32,0,78.48,0,8.3,4.82,12.67,12.93,12.08,5.31-.4,9-3.57,9.93-8.87a35.68,35.68,0,0,0,.52-6.45c0-31,.2-62,0-93-.21-28.75-13.61-49.05-40.18-60.34-2.7-1.15-3.94-2.57-3.89-5.52.12-6.5-.1-13,.06-19.5a7.48,7.48,0,0,1,1.74-4.41c5.48-6.22,7.49-13.63,7.69-21.63.19-7.31,0-14.63,0-22.75A133.78,133.78,0,0,1,783,417.29c52.3,21.8,87.46,59.7,102.51,114.37C913.09,631.93,848,729.07,751.78,746.33c-63,11.3-116.95-7.44-160.36-54.38C567,665.56,553,633.82,549,597.94c-5.73-52.06,8.86-97.88,43.88-136.77,22.5-25,50.49-41.53,83.05-50.14,0,0,10.06-3,17.06-3C693,408,691.48,420.4,692.24,424.7ZM575.71,577.26c.87,8.25,1.32,16.58,2.7,24.76a135.39,135.39,0,0,0,21.87,54.68c3.68,5.39,9.46,6.71,14.2,3.43s5.66-9,2.21-14.53c-.52-.85-1.08-1.67-1.61-2.52-14.79-24-21.57-50.1-18-78.17,1.49-11.59,5.16-22.93,8.31-34.25,1.88-6.76.4-12-5.09-14.26s-10.57.25-13.17,6.39C579.8,540.17,576.32,558.35,575.71,577.26Z" transform="translate(-547.8 -407.67)"/><text class="cls-2" transform="translate(368.29 241.14)">myFood</text></svg>